<svg width="32" height="32" viewBox="0 0 32 32" fill="none" xmlns="http://www.w3.org/2000/svg">
<rect width="32" height="32" rx="16" fill="#6C78FE"/>
<path d="M14.6037 14.2553C14.6037 13.7729 14.2293 13.3817 13.7673 13.3817H11.8953C12.2853 11.3897 13.9737 9.89209 15.9993 9.89209C18.0249 9.89209 19.7133 11.3921 20.1021 13.3841H17.1153C16.6533 13.3841 16.2789 13.7741 16.2789 14.2553C16.2789 14.7377 16.6533 15.1289 17.1153 15.1289H20.1849V16.8737H17.1153C16.6533 16.8737 16.2789 17.2649 16.2789 17.7461C16.2789 18.2285 16.6533 18.6197 17.1153 18.6197H20.1021C19.7685 20.3297 18.4773 21.6761 16.8369 22.0229V24.7289C16.8369 25.2101 16.4613 25.6013 15.9993 25.6013C15.5373 25.6013 15.1617 25.2101 15.1617 24.7289V22.0229C13.5213 21.6749 12.2301 20.3297 11.8977 18.6197H13.7661C14.2293 18.6197 14.6037 18.2285 14.6037 17.7461C14.6037 17.2649 14.2293 16.8737 13.7673 16.8737H11.8125V15.1289H13.7649C14.2281 15.1289 14.6025 14.7377 14.6025 14.2565L14.6037 14.2553Z" fill="white"/>
<path d="M16 6.3999C12.004 6.3999 8.7352 9.6411 8.4808 13.7391C8.04756 13.5042 7.56245 13.3812 7.0696 13.3815C5.374 13.3815 4 14.8143 4 16.5819V18.9099C4 20.6763 5.374 22.1091 7.0696 22.1091C7.1272 22.1091 7.1848 22.1067 7.2412 22.1043V22.1091C8.842 22.1091 10.1392 20.7567 10.1392 19.0875V14.2539C10.1392 10.8807 12.7636 8.1459 16 8.1459C19.2364 8.1459 21.8608 10.8807 21.8608 14.2539V19.0875C21.8608 20.7555 23.1568 22.1091 24.7588 22.1091V22.1043C24.8152 22.1079 24.8728 22.1091 24.9304 22.1091C26.626 22.1091 28 20.6763 28 18.9087V16.5807C28 14.8143 26.626 13.3815 24.9304 13.3815C24.4216 13.3815 23.9416 13.5111 23.5192 13.7391C23.2648 9.6411 19.9948 6.3999 16 6.3999Z" fill="white"/>
</svg>
